PathFileType	4	(X/Y/Z)	C:/Users/CLatella/Desktop/xsens/7Novembre/Claudia/Claudia mvnx and c3d/Claudia-022.trc	
DataRate	CameraRate	NumFrames	NumMarkers	Units	OrigDataRate	OrigDataStartFrame	OrigNumFrames	
240.00	240.00	4	64	mm	240.00	1	1113	
Frame#	Time	pHipOrigin			pRightASI			pLeftASI			pRightCSI			pLeftCSI			pRightIschialTub			pLeftIschialTub			pSacrum			pL5SpinalProcess			pL3SpinalProcess			pT12SpinalProcess			pPX			pIJ			pT4SpinalProcess			pT8SpinalProcess			pC7SpinalProcess			pTopOfHead			pRightAuricularis			pLeftAuricularis			pBackOfHead			pRightAcromion			pLeftAcromion			pRightArmLatEpicondyle			pRightArmMedEpicondyle			pLeftArmLatEpicondyle			pLeftArmMedEpicondyle			pRightUlnarStyloid			pRightRadialStyloid			pRightOlecranon			pLeftUlnarStyloid			pLeftRadialStyloid			pLeftOlecranon			pRightTopOfHand			pRightPinky			pRightBallHand			pLeftTopOfHand			pLeftPinky			pLeftBallHand			pRightGreaterTrochanter			pRightKneeLatEpicondyle			pRightKneeMedEpicondyle			pRightPatella			pLeftGreaterTrochanter			pLeftKneeLatEpicondyle			pLeftKneeMedEpicondyle			pLeftPatella			pRightLatMalleolus			pRightMedMalleolus			pRightTibialTub			pLeftLatMalleolus			pLeftMedMalleolus			pLeftTibialTub			pRightHeelFoot			pRightFirstMetatarsal			pRightFifthMetatarsal			pRightPivotFoot			pRightHeelCenter			pRightToe			pLeftHeelFoot			pLeftFirstMetatarsal			pLeftFifthMetatarsal			pLeftPivotFoot			pLeftHeelCenter			pLeftToe			
		X1	Y1	Z1	X2	Y2	Z2	X3	Y3	Z3	X4	Y4	Z4	X5	Y5	Z5	X6	Y6	Z6	X7	Y7	Z7	X8	Y8	Z8	X9	Y9	Z9	X10	Y10	Z10	X11	Y11	Z11	X12	Y12	Z12	X13	Y13	Z13	X14	Y14	Z14	X15	Y15	Z15	X16	Y16	Z16	X17	Y17	Z17	X18	Y18	Z18	X19	Y19	Z19	X20	Y20	Z20	X21	Y21	Z21	X22	Y22	Z22	X23	Y23	Z23	X24	Y24	Z24	X25	Y25	Z25	X26	Y26	Z26	X27	Y27	Z27	X28	Y28	Z28	X29	Y29	Z29	X30	Y30	Z30	X31	Y31	Z31	X32	Y32	Z32	X33	Y33	Z33	X34	Y34	Z34	X35	Y35	Z35	X36	Y36	Z36	X37	Y37	Z37	X38	Y38	Z38	X39	Y39	Z39	X40	Y40	Z40	X41	Y41	Z41	X42	Y42	Z42	X43	Y43	Z43	X44	Y44	Z44	X45	Y45	Z45	X46	Y46	Z46	X47	Y47	Z47	X48	Y48	Z48	X49	Y49	Z49	X50	Y50	Z50	X51	Y51	Z51	X52	Y52	Z52	X53	Y53	Z53	X54	Y54	Z54	X55	Y55	Z55	X56	Y56	Z56	X57	Y57	Z57	X58	Y58	Z58	X59	Y59	Z59	X60	Y60	Z60	X61	Y61	Z61	X62	Y62	Z62	X63	Y63	Z63	X64	Y64	Z64	

1	0.000	56.43596	216.34666	937.60778	141.38027	104.90015	1005.81663	114.45572	343.47276	1006.39736	110.97137	121.37164	1081.41654	88.53425	320.29653	1081.89168	4.85698	160.22746	895.10923	-6.28239	259.68990	895.32040	-9.18602	208.85002	967.54154	32.20387	214.18214	1036.64788	43.44883	215.76593	1148.62232	55.32731	217.56090	1247.13449	217.29694	226.95810	1319.09167	230.81201	228.91145	1438.98509	82.56861	221.09805	1432.59711	69.05355	219.46146	1345.27711	91.43788	222.99861	1487.13252	267.02816	234.03239	1701.20907	200.98383	159.64673	1622.91671	202.83159	300.23510	1614.46979	150.46071	231.86787	1638.91306	130.34649	28.56114	1447.90715	106.00881	419.54781	1429.48231	213.23186	51.89575	1114.78186	200.29752	115.56438	1116.99918	178.81067	375.62384	1094.35088	181.97827	311.53286	1104.75115	255.30806	44.55749	877.84584	290.52115	79.71778	882.70282	189.63329	63.72143	1113.40924	204.30980	347.90739	854.82799	253.46030	342.94483	862.69419	155.68724	348.54091	1095.24837	326.52613	-26.29103	729.23290	272.57145	-13.51507	797.23058	262.01280	38.90861	847.59532	289.30691	391.62019	692.27764	273.04659	408.40843	776.79960	236.03854	375.78222	831.28221	83.36051	66.09713	911.89748	46.61642	54.85217	523.55047	27.13572	127.65403	517.37366	77.13091	104.53060	519.01025	34.52677	367.49368	911.95027	-32.04549	356.88224	527.56276	-21.90919	282.12703	521.91388	14.99328	322.98899	520.17170	13.09272	40.91475	116.30349	14.25417	100.94066	112.55517	98.45938	92.28257	485.48655	-56.06641	371.50597	120.42136	-47.67229	312.11358	116.30349	34.89633	328.16272	489.28766	-34.52677	66.25550	12.56479	132.19425	86.89766	-0.05279	124.59202	9.76675	7.07429	150.46071	47.09156	2.16452	6.91591	61.45132	4.80418	216.82180	40.38682	-0.31676	-99.04010	336.13450	16.04914	68.84237	345.53170	5.12094	47.40832	420.18132	10.82261	79.61219	388.03025	6.81033	-58.97004	348.17136	8.55250	143.75597	406.56067	4.64580 
2	0.004	56.48876	216.34666	937.60778	141.38027	104.95294	1005.81663	114.50852	343.52555	1006.39736	111.02416	121.42443	1081.41654	88.58704	320.34932	1081.89168	4.90977	160.28025	895.10923	-6.28239	259.74270	895.32040	-9.18602	208.85002	967.59434	32.25666	214.18214	1036.64788	43.44883	215.81873	1148.62232	55.38010	217.56090	1247.13449	217.34973	226.95810	1319.09167	230.86480	228.96424	1438.98509	82.67420	221.09805	1432.59711	69.10634	219.51425	1345.27711	91.54346	222.99861	1487.13252	267.13375	234.08519	1701.15628	201.08942	159.69952	1622.86392	202.93718	300.28790	1614.41700	150.56629	231.86787	1638.91306	130.39928	28.61393	1447.90715	106.06160	419.54781	1429.48231	213.28465	51.94854	1114.78186	200.29752	115.61718	1116.99918	178.81067	375.67663	1094.35088	181.97827	311.58565	1104.75115	255.25527	44.55749	877.84584	290.46836	79.77057	882.65003	189.68608	63.72143	1113.40924	204.25701	347.96018	854.82799	253.40751	342.99762	862.69419	155.68724	348.54091	1095.24837	326.42055	-26.29103	729.23290	272.51866	-13.51507	797.17779	261.96001	38.90861	847.59532	289.20132	391.67298	692.22484	272.94100	408.40843	776.74681	235.98574	375.78222	831.28221	83.36051	66.14992	911.89748	46.61642	54.90496	523.55047	27.18851	127.70683	517.37366	77.13091	104.53060	519.01025	34.52677	367.49368	911.95027	-31.99270	356.88224	527.56276	-21.85640	282.12703	521.91388	15.04607	322.98899	520.17170	13.09272	40.96755	116.30349	14.25417	100.94066	112.55517	98.51217	92.28257	485.48655	-56.06641	371.50597	120.47415	-47.67229	312.11358	116.30349	34.94912	328.16272	489.28766	-34.52677	66.25550	12.56479	132.19425	86.95045	-0.05279	124.59202	9.76675	7.07429	150.46071	47.14436	2.16452	6.91591	61.45132	4.80418	216.82180	40.38682	-0.36955	-99.04010	336.08171	16.04914	68.78958	345.53170	5.12094	47.40832	420.18132	10.82261	79.61219	387.97745	6.81033	-58.97004	348.17136	8.55250	143.75597	406.50788	4.64580 
3	0.008	56.48876	216.39945	937.66057	141.43307	104.95294	1005.81663	114.50852	343.52555	1006.39736	111.02416	121.42443	1081.41654	88.63983	320.34932	1081.89168	4.90977	160.33304	895.10923	-6.22960	259.79549	895.37320	-9.13323	208.90281	967.59434	32.25666	214.23493	1036.64788	43.50162	215.81873	1148.62232	55.43289	217.61370	1247.13449	217.40252	227.01089	1319.09167	230.91759	228.96424	1438.98509	82.72699	221.15084	1432.59711	69.15913	219.51425	1345.27711	91.59626	223.05140	1487.18531	267.23933	234.13798	1701.10348	201.19500	159.75232	1622.86392	203.04277	300.28790	1614.41700	150.67188	231.92066	1638.91306	130.50487	28.61393	1447.90715	106.11439	419.60060	1429.48231	213.28465	51.94854	1114.78186	200.29752	115.61718	1116.99918	178.81067	375.67663	1094.35088	181.97827	311.58565	1104.75115	255.20248	44.61028	877.79305	290.41556	79.77057	882.59723	189.68608	63.77422	1113.40924	204.20422	347.96018	854.82799	253.35471	342.99762	862.64139	155.68724	348.59370	1095.24837	326.36775	-26.23824	729.18010	272.46586	-13.46227	797.12499	261.90722	38.96140	847.54253	289.09573	391.72577	692.17205	272.88821	408.46123	776.69401	235.93295	375.83501	831.28221	83.41330	66.14992	911.89748	46.61642	54.90496	523.55047	27.18851	127.70683	517.37366	77.18370	104.58339	519.06305	34.52677	367.54647	912.00306	-31.93990	356.88224	527.56276	-21.75081	282.17982	521.91388	15.15166	323.04178	520.17170	13.09272	40.96755	116.30349	14.25417	100.99345	112.55517	98.51217	92.33536	485.48655	-56.06641	371.50597	120.47415	-47.67229	312.11358	116.30349	35.00191	328.16272	489.28766	-34.52677	66.25550	12.56479	132.19425	86.95045	-0.05279	124.64482	9.81954	7.07429	150.46071	47.14436	2.16452	6.91591	61.50411	4.80418	216.82180	40.43961	-0.36955	-99.04010	336.13450	16.04914	68.78958	345.42611	5.12094	47.46111	420.12853	10.82261	79.61219	387.92466	6.75753	-58.97004	348.17136	8.55250	143.75597	406.40229	4.59301 
4	0.013	56.54155	216.39945	937.66057	141.48586	105.00574	1005.81663	114.56131	343.57835	1006.45015	111.07696	121.47722	1081.41654	88.63983	320.40212	1081.94447	4.96256	160.33304	895.10923	-6.22960	259.79549	895.37320	-9.13323	208.90281	967.59434	32.30946	214.23493	1036.64788	43.55442	215.87152	1148.62232	55.48569	217.61370	1247.13449	217.45532	227.06369	1319.09167	231.02318	229.01704	1438.93230	82.77979	221.15084	1432.64991	69.26472	219.56705	1345.27711	91.70184	223.05140	1487.18531	267.39771	234.19077	1701.10348	201.30059	159.75232	1622.86392	203.14835	300.34069	1614.41700	150.77747	231.92066	1638.91306	130.61045	28.66672	1447.90715	106.16719	419.60060	1429.48231	213.28465	52.00133	1114.72907	200.35031	115.66997	1116.99918	178.81067	375.67663	1094.35088	182.03106	311.58565	1104.75115	255.14968	44.61028	877.79305	290.36277	79.82337	882.59723	189.68608	63.77422	1113.40924	204.20422	348.01298	854.77520	253.35471	343.05041	862.64139	155.68724	348.59370	1095.24837	326.26217	-26.18544	729.12731	272.41307	-13.46227	797.12499	261.85443	38.96140	847.54253	288.99015	391.77857	692.11926	272.78262	408.51402	776.69401	235.88016	375.83501	831.22942	83.41330	66.20271	911.95027	46.66922	54.95775	523.55047	27.18851	127.75962	517.37366	77.18370	104.58339	519.06305	34.52677	367.54647	912.00306	-31.83432	356.88224	527.56276	-21.64522	282.17982	521.91388	15.20445	323.04178	520.17170	13.09272	40.96755	116.30349	14.25417	100.99345	112.55517	98.51217	92.33536	485.48655	-56.06641	371.50597	120.47415	-47.67229	312.11358	116.30349	35.10750	328.21552	489.28766	-34.52677	66.25550	12.56479	132.19425	87.00324	-0.05279	124.64482	9.81954	7.07429	150.46071	47.19715	2.16452	6.91591	61.50411	4.80418	216.82180	40.43961	-0.36955	-99.04010	336.13450	16.04914	68.78958	345.42611	5.12094	47.46111	420.07574	10.82261	79.61219	387.87187	6.75753	-58.97004	348.17136	8.55250	143.75597	406.34950	4.59301 
